<?xml version="1.0" encoding="UTF-8"?>
<svg fill="#132238" width="100pt" height="100pt" version="1.1" viewBox="0 0 100 100" xmlns="http://www.w3.org/2000/svg">
 <g>
  <path d="m42.125 62.715l-7.0977-18.234h-2.0938l-7.2969 18.234c-0.33984 0.078125-0.68359 0.18359-1.0312 0.32422-0.34766 0.14063-0.67578 0.30859-0.97656 0.49609v1.0742h6.9844v-1.0742c-0.77344-0.43359-1.5938-0.70703-2.4609-0.82031l1.668-4.4961h6.2773l1.6406 4.4961c-0.37891 0.078125-0.77344 0.1875-1.1875 0.33984-0.41406 0.14844-0.80469 0.30859-1.1602 0.48047v1.0742h8.8477v-1.0742c-0.28125-0.1875-0.61328-0.35156-0.98828-0.49609-0.37109-0.13672-0.75-0.24609-1.125-0.32422zm-11.621-6.332l1.9492-5.3438 0.62109-2.4883h0.054687l0.53516 2.4297 1.8398 5.3984z"/>
  <path d="m83.066 17.91h-35c-1.543 0-2.8008 1.2578-2.8008 2.8008v14.027h-29.398c-0.77344 0-1.3984 0.625-1.3984 1.3984v36.375c0 0.77344 0.62891 1.3984 1.3984 1.3984h12.602v6.2344c0 0.53516 0.30469 1.0234 0.78516 1.2578 0.19531 0.097656 0.40625 0.14062 0.61328 0.14062 0.30469 0 0.60937-0.10156 0.85937-0.29688l9.4219-7.3398h13.52c0.77344 0 1.3984-0.625 1.3984-1.3984v-15.398h3.0391c0.44922 0 1.2695 0.28516 1.625 0.56641l7.3711 5.8633c0.45313 0.35938 0.95313 0.55078 1.4453 0.55078 0.95312 0 1.9219-0.74609 1.9219-2.1758v-4.8086h12.602c1.543 0 2.8008-1.2578 2.8008-2.8008v-33.602c-0.003906-1.5391-1.2617-2.793-2.8047-2.793zm-30.801 53.199h-12.602c-0.3125 0-0.61328 0.10547-0.85937 0.29688l-7.5391 5.8711v-4.7695c0-0.77344-0.62891-1.3984-1.3984-1.3984h-12.602v-33.574h28v16.773c0 1.543 1.2578 2.8008 2.8008 2.8008h4.1992zm30.801-16.801h-12.602c-1.543 0-2.8008 1.2578-2.8008 2.8008v3.3047l-6.1953-4.9258c-0.85547-0.68359-2.2734-1.1758-3.3672-1.1758l-10.035-0.003906v-33.602h35z"/>
  <path d="m54.238 50.02h1.5703v-1.25h6.1172v-7.8203h-7.6875zm1.5664-7.5547h4.5195v4.7891h-4.5195z"/>
  <path d="m53.012 29.887h9.7617v1.5156h-9.7617z"/>
  <path d="m54.422 26.297h7.3398v1.4648h-7.3398z"/>
  <path d="m64.957 50.07h1.7031v-1.2227h7.7656v1.0625h1.7305v-9.5195h-11.199zm1.6992-8.0547h7.7656l0.003906 5.1836h-7.7656z"/>
  <path d="m78.016 36.562h-2.6602v-5.6133h-6.0625l0.44922-2.9805h7.2891v-1.5977l-13.219 0.003906v1.5977h4.2031c-0.16016 0.92969-0.32031 1.9688-0.48047 2.9805h-3.1914v1.5977h2.9258c-0.26562 1.4648-0.53125 2.8477-0.76953 4.0156h-3.6445v1.6211h15.16l-0.003906-1.625zm-4.3906 0h-5.3477c0.24219-1.1719 0.50781-2.5781 0.74609-4.0156h4.6016z"/>
  <path d="m54.266 33.609h7.5781v1.4648h-7.5781z"/>
  <path d="m54.266 37.281h7.5781v1.4648h-7.5781z"/>
 </g>
</svg>
