<?xml version="1.0" encoding="utf-8"?>
<!-- Generator: Adobe Illustrator 16.0.0, SVG Export Plug-In . SVG Version: 6.00 Build 0)  -->
<!DOCTYPE svg PUBLIC "-//W3C//DTD SVG 1.1//EN" "http://www.w3.org/Graphics/SVG/1.1/DTD/svg11.dtd">
<svg version="1.1" id="layer_1" xmlns="http://www.w3.org/2000/svg" xmlns:xlink="http://www.w3.org/1999/xlink" x="0px"
	 y="0px" width="400px" height="70px" viewBox="0 0 400 70" enable-background="new 0 0 400 70" xml:space="preserve">
<path fill="#323333" d="M384.416,34.468c0,5.672-1.701,10.918-4.679,15.242c-2.907,4.396-7.09,7.869-11.981,9.926
	c-3.261,1.347-6.876,2.127-10.634,2.127c-5.672,0-10.918-1.702-15.242-4.679c-4.396-2.908-7.799-7.091-9.926-11.981
	c-1.348-3.262-2.127-6.877-2.127-10.635c0-5.672,1.702-10.918,4.68-15.242c2.906-4.396,7.089-7.798,11.98-9.926
	c3.262-1.346,6.877-2.127,10.635-2.127c5.672,0,10.918,1.702,15.242,4.68c4.396,2.907,7.869,7.09,9.926,11.981
	C383.636,27.095,384.416,30.71,384.416,34.468z M382.29,34.468c0-5.246-1.561-10.066-4.325-14.037
	c-2.694-4.041-6.522-7.23-11.06-9.145c-2.979-1.277-6.311-1.986-9.783-1.986c-5.246,0-10.066,1.561-14.037,4.325
	c-4.041,2.694-7.23,6.522-9.146,11.06c-1.276,2.979-1.985,6.31-1.985,9.783c0,5.247,1.561,10.067,4.324,14.107
	c2.694,3.972,6.522,7.161,11.061,9.075c2.977,1.276,6.309,1.985,9.783,1.985c5.246,0,10.066-1.561,14.037-4.324
	c4.041-2.694,7.23-6.522,9.145-11.06C381.581,41.274,382.29,37.942,382.29,34.468z"/>
<path fill="#323333" d="M53.047,47.709c0,1.134-0.184,2.268-0.553,3.403c-0.553,1.559-1.383,3.047-2.488,4.324
	c-1.106,1.276-2.58,2.41-4.146,3.331c-3.135,1.915-7.097,2.907-11.244,2.907c-1.475,0-2.949-0.07-4.424-0.354
	c-2.12-0.425-3.964-1.063-5.714-1.914c-1.66-0.851-3.134-1.914-4.425-3.048c-2.395-2.41-3.87-5.389-3.87-8.508
	c0-0.566,0.646-1.063,1.382-1.063c0.737,0,1.383,0.497,1.383,1.063c0,1.985,0.736,3.898,1.936,5.529
	c1.198,1.702,2.949,3.19,5.068,4.254c1.476,0.709,3.135,1.276,4.885,1.561c1.29,0.282,2.581,0.354,3.779,0.354
	c2.672,0,5.16-0.497,7.465-1.418c2.211-0.923,4.146-2.199,5.621-3.9c0.922-1.063,1.659-2.269,2.12-3.615
	c0.276-0.993,0.46-1.985,0.46-2.906c0-1.985-0.645-3.899-1.842-5.602c-1.198-1.701-3.041-3.189-5.162-4.253
	c-1.475-0.709-3.133-1.276-4.883-1.631l-7.928-1.489c-0.091,0-0.184,0-0.275,0c-2.12-0.425-4.055-1.063-5.714-1.914
	c-1.751-0.851-3.227-1.915-4.425-3.12c-2.488-2.41-3.87-5.387-3.87-8.578c0-1.063,0.185-2.197,0.552-3.332
	c0.555-1.63,1.384-3.048,2.489-4.395c1.106-1.276,2.581-2.411,4.147-3.332c3.133-1.844,7.096-2.907,11.244-2.907
	c1.475,0,2.949,0.142,4.424,0.426c4.146,0.78,7.648,2.552,10.137,4.962c2.396,2.339,3.871,5.317,3.871,8.436
	c0,0.568-0.645,1.063-1.383,1.063c-0.736,0-1.383-0.425-1.383-1.063c0-1.914-0.736-3.828-1.935-5.529
	c-1.197-1.702-2.948-3.119-5.069-4.183c-1.475-0.78-3.133-1.276-4.883-1.631c-1.291-0.213-2.582-0.354-3.779-0.354
	c-2.674,0-5.16,0.496-7.465,1.418c-2.212,0.921-4.148,2.268-5.622,3.899c-0.923,1.134-1.659,2.339-2.12,3.687
	c-0.276,0.993-0.461,1.914-0.461,2.835c0,1.985,0.646,3.97,1.844,5.672c1.197,1.701,3.041,3.12,5.16,4.253
	c1.291,0.567,2.674,1.063,4.146,1.418c0.094,0,0.186,0,0.278,0.071l8.663,1.63c2.119,0.354,4.055,1.063,5.713,1.914
	c1.752,0.851,3.227,1.914,4.424,3.119C51.664,41.612,53.047,44.59,53.047,47.709z"/>
<path fill="#323333" d="M109.758,8.22v52.462c0,0.425-0.293,0.85-0.733,0.992c-0.438,0.142-0.952,0-1.172-0.354L88.064,36.224
	L68.35,61.32c-0.293,0.354-0.807,0.496-1.246,0.354c-0.439-0.143-0.732-0.567-0.732-0.992V8.22c0-0.425,0.293-0.851,0.732-0.992
	s0.953,0,1.246,0.354l19.715,25.096l19.788-25.096c0.22-0.354,0.733-0.496,1.172-0.354C109.465,7.37,109.758,7.795,109.758,8.22z
	 M86.672,34.451l-18.103-23.04v46.151L86.672,34.451z M107.559,11.411l-18.102,23.04l18.102,23.111V11.411z"/>
<path fill="#323333" d="M175.411,34.451c0,5.672-1.701,10.918-4.679,15.242c-2.907,4.396-7.09,7.869-11.981,9.926
	c-3.261,1.347-6.876,2.127-10.634,2.127c-5.672,0-10.918-1.702-15.242-4.679c-4.396-2.908-7.799-7.091-9.926-11.981
	c-1.348-3.262-2.127-6.877-2.127-10.635c0-5.671,1.702-10.917,4.68-15.242c2.906-4.396,7.089-7.798,11.98-9.925
	c3.262-1.347,6.877-2.127,10.635-2.127c5.672,0,10.918,1.702,15.242,4.679c4.396,2.907,7.869,7.09,9.926,11.981
	C174.631,27.078,175.411,30.694,175.411,34.451z M173.285,34.451c0-5.246-1.561-10.067-4.325-14.037
	c-2.694-4.041-6.522-7.231-11.06-9.145c-2.979-1.276-6.311-1.985-9.783-1.985c-5.246,0-10.066,1.56-14.037,4.325
	c-4.041,2.694-7.23,6.522-9.146,11.06c-1.276,2.978-1.985,6.309-1.985,9.783c0,5.247,1.561,10.067,4.324,14.107
	c2.694,3.972,6.522,7.161,11.061,9.075c2.977,1.276,6.309,1.985,9.783,1.985c5.246,0,10.066-1.561,14.037-4.324
	c4.041-2.694,7.23-6.522,9.145-11.06C172.576,41.258,173.285,37.926,173.285,34.451z"/>
<path fill="#323333" d="M211.25,8.504l-16.336,52.462c-0.17,0.566-0.851,0.921-1.531,0.78c-0.68-0.214-1.105-0.78-0.936-1.348
	l7.998-25.734L177.559,8.858c-0.255-0.354-0.34-0.78-0.085-1.134c0.171-0.354,0.596-0.567,1.105-0.567h31.479
	c0.425,0,0.766,0.142,1.021,0.426C211.335,7.866,211.42,8.149,211.25,8.504z M208.442,9.284h-27.311l20.164,22.757L208.442,9.284z"
	/>
<path fill="#323333" d="M259.553,61.604c-0.518,0.282-1.101,0.07-1.296-0.427l-11.525-25.166l-35.033,25.593
	c-0.324,0.212-0.843,0.212-1.166-0.143c-0.323-0.284-0.452-0.851-0.194-1.275l23.96-52.462c0.13-0.354,0.454-0.567,0.842-0.567
	s0.712,0.213,0.842,0.567l23.96,52.462C260.2,60.753,260.007,61.392,259.553,61.604z M245.89,34.098l-10.75-23.467l-21.435,46.932
	L245.89,34.098z"/>
<path fill="#323333" d="M295.289,8.22v52.462c0,0.567-0.495,1.063-1.063,1.063c-0.567,0-1.062-0.496-1.062-1.063V8.22
	c0-0.567,0.495-1.063,1.062-1.063C294.794,7.157,295.289,7.653,295.289,8.22z"/>
<path fill="#323333" d="M323.44,8.504l-12.55,52.462c-0.141,0.566-0.709,0.921-1.273,0.78c-0.64-0.142-0.994-0.709-0.853-1.277
	l12.618-52.461c0.145-0.638,0.709-0.921,1.277-0.851C323.228,7.299,323.582,7.866,323.44,8.504z"/>
<circle fill="none" stroke="#323333" stroke-width="2" stroke-miterlimit="10" cx="275.93" cy="57.741" r="4.037"/>
</svg>
